<?xml version="1.0" encoding="utf-8"?>
<!-- Generator: Adobe Illustrator 17.0.2, SVG Export Plug-In . SVG Version: 6.00 Build 0)  -->
<!DOCTYPE svg PUBLIC "-//W3C//DTD SVG 1.1//EN" "http://www.w3.org/Graphics/SVG/1.1/DTD/svg11.dtd">
<svg version="1.1" xmlns="http://www.w3.org/2000/svg" xmlns:xlink="http://www.w3.org/1999/xlink" x="0px" y="0px" width="340px"
	 height="273px" viewBox="0 0 340 273" enable-background="new 0 0 340 273" xml:space="preserve">
<g id="BG" display="none">
	<g display="inline">
		<g>
			<g>
				<defs>
					<rect id="SVGID_1_" width="340" height="273"/>
				</defs>
				<clipPath id="SVGID_2_">
					<use xlink:href="#SVGID_1_"  overflow="visible"/>
				</clipPath>
				<g clip-path="url(#SVGID_2_)">
					<g>
						<defs>
							<rect id="SVGID_3_" x="279.5" y="-469.577" width="680" height="820"/>
						</defs>
						<clipPath id="SVGID_4_">
							<use xlink:href="#SVGID_3_"  overflow="visible"/>
						</clipPath>
					</g>
				</g>
				<g clip-path="url(#SVGID_2_)">
					<g>
						<defs>
							<rect id="SVGID_5_" x="-400.5" y="-469.577" width="680" height="820"/>
						</defs>
						<clipPath id="SVGID_6_">
							<use xlink:href="#SVGID_5_"  overflow="visible"/>
						</clipPath>
					</g>
				</g>
			</g>
		</g>
		<g>
			<g>
				<defs>
					<rect id="SVGID_7_" width="340" height="273"/>
				</defs>
				<use xlink:href="#SVGID_7_"  overflow="visible" fill="#FC4F0C"/>
				<clipPath id="SVGID_8_">
					<use xlink:href="#SVGID_7_"  overflow="visible"/>
				</clipPath>
				<g clip-path="url(#SVGID_8_)">
					<g>
						<defs>
							<rect id="SVGID_9_" x="279.5" y="-469.577" width="680" height="820"/>
						</defs>
						<use xlink:href="#SVGID_9_"  overflow="visible" fill="#FC4F0C"/>
						<clipPath id="SVGID_10_">
							<use xlink:href="#SVGID_9_"  overflow="visible"/>
						</clipPath>
						<g clip-path="url(#SVGID_10_)">
							<polygon fill="#FC4F0C" points="1014,663 951,663 1341,37 1404,37 							"/>
						</g>
						<g clip-path="url(#SVGID_10_)">
							<polygon fill="#FC4F0C" points="844,663 781,663 1171,37 1234,37 							"/>
							<polygon opacity="0.6" fill="#FC4F0C" points="1130.431,253 875,663 918,663 1173.431,253 							"/>
						</g>
						<g clip-path="url(#SVGID_10_)">
							<polygon fill="#FC4F0C" points="674,663 611,663 1001,37 1064,37 							"/>
							<polygon opacity="0.6" fill="#FC4F0C" points="960.431,253 705,663 748,663 1003.431,253 							"/>
						</g>
						<g clip-path="url(#SVGID_10_)">
							<polygon fill="#FC4F0C" points="504,663 441,663 831,37 894,37 							"/>
							<polygon opacity="0.6" fill="#FC4F0C" points="790.431,253 535,663 578,663 833.431,253 							"/>
						</g>
						<g clip-path="url(#SVGID_10_)">
							<polygon fill="#FC4F0C" points="334,663 271,663 661,37 724,37 							"/>
							<polygon opacity="0.6" fill="#FC4F0C" points="620.431,253 365,663 408,663 663.431,253 							"/>
						</g>
						<g clip-path="url(#SVGID_10_)">
							<polygon fill="#FC4F0C" points="164,663 101,663 491,37 554,37 							"/>
							<polygon opacity="0.6" fill="#FC4F0C" points="450.431,253 195,663 238,663 493.431,253 							"/>
						</g>
						<g clip-path="url(#SVGID_10_)">
							<polygon fill="#FC4F0C" points="-6,663 -69,663 321,37 384,37 							"/>
							<polygon opacity="0.6" fill="#FC4F0C" points="280.431,253 25,663 68,663 323.431,253 							"/>
						</g>
						<g clip-path="url(#SVGID_10_)">
							<polygon fill="#FC4F0C" points="929,253 866,253 1256,-373 1319,-373 							"/>
						</g>
						<g clip-path="url(#SVGID_10_)">
							<polygon fill="#FC4F0C" points="759,253 696,253 1086,-373 1149,-373 							"/>
							<polygon opacity="0.6" fill="#FC4F0C" points="1045.431,-157 790,253 833,253 1088.431,-157 							"/>
						</g>
						<g clip-path="url(#SVGID_10_)">
							<polygon fill="#FC4F0C" points="589,253 526,253 916,-373 979,-373 							"/>
							<polygon opacity="0.6" fill="#FC4F0C" points="875.431,-157 620,253 663,253 918.431,-157 							"/>
						</g>
						<g clip-path="url(#SVGID_10_)">
							<polygon fill="#FC4F0C" points="419,253 356,253 746,-373 809,-373 							"/>
							<polygon opacity="0.6" fill="#FC4F0C" points="705.431,-157 450,253 493,253 748.431,-157 							"/>
						</g>
						<g clip-path="url(#SVGID_10_)">
							<polygon fill="#FC4F0C" points="249,253 186,253 576,-373 639,-373 							"/>
							<polygon opacity="0.6" fill="#FC4F0C" points="535.431,-157 280,253 323,253 578.431,-157 							"/>
						</g>
						<g clip-path="url(#SVGID_10_)">
							<polygon fill="#FC4F0C" points="79,253 16,253 406,-373 469,-373 							"/>
							<polygon opacity="0.6" fill="#FC4F0C" points="365.431,-157 110,253 153,253 408.431,-157 							"/>
						</g>
						<g clip-path="url(#SVGID_10_)">
							<polygon fill="#FC4F0C" points="-91,253 -154,253 236,-373 299,-373 							"/>
						</g>
						<g clip-path="url(#SVGID_10_)">
							<polygon fill="#FC4F0C" points="1014,-157 951,-157 1341,-783 1404,-783 							"/>
						</g>
						<g clip-path="url(#SVGID_10_)">
							<polygon fill="#FC4F0C" points="844,-157 781,-157 1171,-783 1234,-783 							"/>
							<polygon opacity="0.6" fill="#FC4F0C" points="1130.431,-567 875,-157 918,-157 1173.431,-567 							"/>
						</g>
						<g clip-path="url(#SVGID_10_)">
							<polygon fill="#FC4F0C" points="674,-157 611,-157 1001,-783 1064,-783 							"/>
							<polygon opacity="0.6" fill="#FC4F0C" points="960.431,-567 705,-157 748,-157 1003.431,-567 							"/>
						</g>
						<g clip-path="url(#SVGID_10_)">
							<polygon fill="#FC4F0C" points="504,-157 441,-157 831,-783 894,-783 							"/>
							<polygon opacity="0.6" fill="#FC4F0C" points="790.431,-567 535,-157 578,-157 833.431,-567 							"/>
						</g>
						<g clip-path="url(#SVGID_10_)">
							<polygon fill="#FC4F0C" points="334,-157 271,-157 661,-783 724,-783 							"/>
							<polygon opacity="0.6" fill="#FC4F0C" points="620.431,-567 365,-157 408,-157 663.431,-567 							"/>
						</g>
						<g clip-path="url(#SVGID_10_)">
							<polygon fill="#FC4F0C" points="164,-157 101,-157 491,-783 554,-783 							"/>
							<polygon opacity="0.6" fill="#FC4F0C" points="450.431,-567 195,-157 238,-157 493.431,-567 							"/>
						</g>
						<g clip-path="url(#SVGID_10_)">
							<polygon fill="#FC4F0C" points="-6,-157 -69,-157 321,-783 384,-783 							"/>
							<polygon opacity="0.6" fill="#FC4F0C" points="280.431,-567 25,-157 68,-157 323.431,-567 							"/>
						</g>
					</g>
				</g>
				<g clip-path="url(#SVGID_8_)">
					<g>
						<defs>
							<rect id="SVGID_11_" x="-400.5" y="-469.577" width="680" height="820"/>
						</defs>
						<use xlink:href="#SVGID_11_"  overflow="visible" fill="#FC4F0C"/>
						<clipPath id="SVGID_12_">
							<use xlink:href="#SVGID_11_"  overflow="visible"/>
						</clipPath>
						<g clip-path="url(#SVGID_12_)">
							<polygon fill="#FC4F0C" points="334,663 271,663 661,37 724,37 							"/>
						</g>
						<g clip-path="url(#SVGID_12_)">
							<polygon fill="#FC4F0C" points="164,663 101,663 491,37 554,37 							"/>
							<polygon opacity="0.6" fill="#FC4F0C" points="450.431,253 195,663 238,663 493.431,253 							"/>
						</g>
						<g clip-path="url(#SVGID_12_)">
							<polygon fill="#FC4F0C" points="-6,663 -69,663 321,37 384,37 							"/>
							<polygon opacity="0.6" fill="#FC4F0C" points="280.431,253 25,663 68,663 323.431,253 							"/>
						</g>
						<g clip-path="url(#SVGID_12_)">
							<polygon fill="#FC4F0C" points="-176,663 -239,663 151,37 214,37 							"/>
							<polygon opacity="0.6" fill="#FC4F0C" points="110.431,253 -145,663 -102,663 153.431,253 							"/>
						</g>
						<g clip-path="url(#SVGID_12_)">
							<polygon fill="#FC4F0C" points="-346,663 -409,663 -19,37 44,37 							"/>
							<polygon opacity="0.6" fill="#FC4F0C" points="-59.569,253 -315,663 -272,663 -16.569,253 							"/>
						</g>
						<g clip-path="url(#SVGID_12_)">
							<polygon fill="#FC4F0C" points="-516,663 -579,663 -189,37 -126,37 							"/>
							<polygon opacity="0.6" fill="#FC4F0C" points="-229.569,253 -485,663 -442,663 -186.569,253 							"/>
						</g>
						<g clip-path="url(#SVGID_12_)">
							<polygon fill="#FC4F0C" points="-686,663 -749,663 -359,37 -296,37 							"/>
							<polygon opacity="0.6" fill="#FC4F0C" points="-399.569,253 -655,663 -612,663 -356.569,253 							"/>
						</g>
						<g clip-path="url(#SVGID_12_)">
							<polygon fill="#FC4F0C" points="249,253 186,253 576,-373 639,-373 							"/>
						</g>
						<g clip-path="url(#SVGID_12_)">
							<polygon fill="#FC4F0C" points="79,253 16,253 406,-373 469,-373 							"/>
							<polygon opacity="0.6" fill="#FC4F0C" points="365.431,-157 110,253 153,253 408.431,-157 							"/>
						</g>
						<g clip-path="url(#SVGID_12_)">
							<polygon fill="#FC4F0C" points="-91,253 -154,253 236,-373 299,-373 							"/>
							<polygon opacity="0.6" fill="#FC4F0C" points="195.431,-157 -60,253 -17,253 238.431,-157 							"/>
						</g>
						<g clip-path="url(#SVGID_12_)">
							<polygon fill="#FC4F0C" points="-261,253 -324,253 66,-373 129,-373 							"/>
							<polygon opacity="0.6" fill="#FC4F0C" points="25.431,-157 -230,253 -187,253 68.431,-157 							"/>
						</g>
						<g clip-path="url(#SVGID_12_)">
							<polygon fill="#FC4F0C" points="-431,253 -494,253 -104,-373 -41,-373 							"/>
							<polygon opacity="0.6" fill="#FC4F0C" points="-144.569,-157 -400,253 -357,253 -101.569,-157 							"/>
						</g>
						<g clip-path="url(#SVGID_12_)">
							<polygon fill="#FC4F0C" points="-601,253 -664,253 -274,-373 -211,-373 							"/>
							<polygon opacity="0.6" fill="#FC4F0C" points="-314.569,-157 -570,253 -527,253 -271.569,-157 							"/>
						</g>
						<g clip-path="url(#SVGID_12_)">
							<polygon fill="#FC4F0C" points="-771,253 -834,253 -444,-373 -381,-373 							"/>
						</g>
						<g clip-path="url(#SVGID_12_)">
							<polygon fill="#FC4F0C" points="334,-157 271,-157 661,-783 724,-783 							"/>
						</g>
						<g clip-path="url(#SVGID_12_)">
							<polygon fill="#FC4F0C" points="164,-157 101,-157 491,-783 554,-783 							"/>
							<polygon opacity="0.6" fill="#FC4F0C" points="450.431,-567 195,-157 238,-157 493.431,-567 							"/>
						</g>
						<g clip-path="url(#SVGID_12_)">
							<polygon fill="#FC4F0C" points="-6,-157 -69,-157 321,-783 384,-783 							"/>
							<polygon opacity="0.6" fill="#FC4F0C" points="280.431,-567 25,-157 68,-157 323.431,-567 							"/>
						</g>
						<g clip-path="url(#SVGID_12_)">
							<polygon fill="#FC4F0C" points="-176,-157 -239,-157 151,-783 214,-783 							"/>
							<polygon opacity="0.6" fill="#FC4F0C" points="110.431,-567 -145,-157 -102,-157 153.431,-567 							"/>
						</g>
						<g clip-path="url(#SVGID_12_)">
							<polygon fill="#FC4F0C" points="-346,-157 -409,-157 -19,-783 44,-783 							"/>
							<polygon opacity="0.6" fill="#FC4F0C" points="-59.569,-567 -315,-157 -272,-157 -16.569,-567 							"/>
						</g>
						<g clip-path="url(#SVGID_12_)">
							<polygon fill="#FC4F0C" points="-516,-157 -579,-157 -189,-783 -126,-783 							"/>
							<polygon opacity="0.6" fill="#FC4F0C" points="-229.569,-567 -485,-157 -442,-157 -186.569,-567 							"/>
						</g>
						<g clip-path="url(#SVGID_12_)">
							<polygon fill="#FC4F0C" points="-686,-157 -749,-157 -359,-783 -296,-783 							"/>
							<polygon opacity="0.6" fill="#FC4F0C" points="-399.569,-567 -655,-157 -612,-157 -356.569,-567 							"/>
						</g>
					</g>
				</g>
			</g>
		</g>
		<g>
			<g>
				<defs>
					<rect id="SVGID_13_" width="340" height="273"/>
				</defs>
				<clipPath id="SVGID_14_">
					<use xlink:href="#SVGID_13_"  overflow="visible"/>
				</clipPath>
				<g clip-path="url(#SVGID_14_)">
					<g>
						<defs>
							<rect id="SVGID_15_" x="279.5" y="-469.577" width="680" height="820"/>
						</defs>
						<clipPath id="SVGID_16_">
							<use xlink:href="#SVGID_15_"  overflow="visible"/>
						</clipPath>
					</g>
				</g>
				<g clip-path="url(#SVGID_14_)">
					<g>
						<defs>
							<rect id="SVGID_17_" x="-400.5" y="-469.577" width="680" height="820"/>
						</defs>
						<clipPath id="SVGID_18_">
							<use xlink:href="#SVGID_17_"  overflow="visible"/>
						</clipPath>
					</g>
				</g>
			</g>
		</g>
	</g>
</g>
<g id="Pattern">
	<g opacity="0.08">
		<g>
			<defs>
				<rect id="SVGID_19_" width="340" height="273"/>
			</defs>
			<clipPath id="SVGID_20_">
				<use xlink:href="#SVGID_19_"  overflow="visible"/>
			</clipPath>
			<g clip-path="url(#SVGID_20_)">
				<g>
					<defs>
						<rect id="SVGID_21_" x="279.5" y="-469.577" width="680" height="820"/>
					</defs>
					<clipPath id="SVGID_22_">
						<use xlink:href="#SVGID_21_"  overflow="visible"/>
					</clipPath>
					<g clip-path="url(#SVGID_22_)">
						<polygon fill="#FFFFFF" points="1014,663 951,663 1341,37 1404,37 						"/>
					</g>
					<g clip-path="url(#SVGID_22_)">
						<polygon fill="#FFFFFF" points="844,663 781,663 1171,37 1234,37 						"/>
						<polygon opacity="0.6" fill="#FFFFFF" points="1130.431,253 875,663 918,663 1173.431,253 						"/>
					</g>
					<g clip-path="url(#SVGID_22_)">
						<polygon fill="#FFFFFF" points="674,663 611,663 1001,37 1064,37 						"/>
						<polygon opacity="0.6" fill="#FFFFFF" points="960.431,253 705,663 748,663 1003.431,253 						"/>
					</g>
					<g clip-path="url(#SVGID_22_)">
						<polygon fill="#FFFFFF" points="504,663 441,663 831,37 894,37 						"/>
						<polygon opacity="0.6" fill="#FFFFFF" points="790.431,253 535,663 578,663 833.431,253 						"/>
					</g>
					<g clip-path="url(#SVGID_22_)">
						<polygon fill="#FFFFFF" points="334,663 271,663 661,37 724,37 						"/>
						<polygon opacity="0.6" fill="#FFFFFF" points="620.431,253 365,663 408,663 663.431,253 						"/>
					</g>
					<g clip-path="url(#SVGID_22_)">
						<polygon fill="#FFFFFF" points="164,663 101,663 491,37 554,37 						"/>
						<polygon opacity="0.6" fill="#FFFFFF" points="450.431,253 195,663 238,663 493.431,253 						"/>
					</g>
					<g clip-path="url(#SVGID_22_)">
						<polygon fill="#FFFFFF" points="-6,663 -69,663 321,37 384,37 						"/>
						<polygon opacity="0.6" fill="#FFFFFF" points="280.431,253 25,663 68,663 323.431,253 						"/>
					</g>
					<g clip-path="url(#SVGID_22_)">
						<polygon fill="#FFFFFF" points="929,253 866,253 1256,-373 1319,-373 						"/>
					</g>
					<g clip-path="url(#SVGID_22_)">
						<polygon fill="#FFFFFF" points="759,253 696,253 1086,-373 1149,-373 						"/>
						<polygon opacity="0.6" fill="#FFFFFF" points="1045.431,-157 790,253 833,253 1088.431,-157 						"/>
					</g>
					<g clip-path="url(#SVGID_22_)">
						<polygon fill="#FFFFFF" points="589,253 526,253 916,-373 979,-373 						"/>
						<polygon opacity="0.6" fill="#FFFFFF" points="875.431,-157 620,253 663,253 918.431,-157 						"/>
					</g>
					<g clip-path="url(#SVGID_22_)">
						<polygon fill="#FFFFFF" points="419,253 356,253 746,-373 809,-373 						"/>
						<polygon opacity="0.6" fill="#FFFFFF" points="705.431,-157 450,253 493,253 748.431,-157 						"/>
					</g>
					<g clip-path="url(#SVGID_22_)">
						<polygon fill="#FFFFFF" points="249,253 186,253 576,-373 639,-373 						"/>
						<polygon opacity="0.6" fill="#FFFFFF" points="535.431,-157 280,253 323,253 578.431,-157 						"/>
					</g>
					<g clip-path="url(#SVGID_22_)">
						<polygon fill="#FFFFFF" points="79,253 16,253 406,-373 469,-373 						"/>
						<polygon opacity="0.6" fill="#FFFFFF" points="365.431,-157 110,253 153,253 408.431,-157 						"/>
					</g>
					<g clip-path="url(#SVGID_22_)">
						<polygon fill="#FFFFFF" points="-91,253 -154,253 236,-373 299,-373 						"/>
					</g>
					<g clip-path="url(#SVGID_22_)">
						<polygon fill="#FFFFFF" points="1014,-157 951,-157 1341,-783 1404,-783 						"/>
					</g>
					<g clip-path="url(#SVGID_22_)">
						<polygon fill="#FFFFFF" points="844,-157 781,-157 1171,-783 1234,-783 						"/>
						<polygon opacity="0.6" fill="#FFFFFF" points="1130.431,-567 875,-157 918,-157 1173.431,-567 						"/>
					</g>
					<g clip-path="url(#SVGID_22_)">
						<polygon fill="#FFFFFF" points="674,-157 611,-157 1001,-783 1064,-783 						"/>
						<polygon opacity="0.6" fill="#FFFFFF" points="960.431,-567 705,-157 748,-157 1003.431,-567 						"/>
					</g>
					<g clip-path="url(#SVGID_22_)">
						<polygon fill="#FFFFFF" points="504,-157 441,-157 831,-783 894,-783 						"/>
						<polygon opacity="0.6" fill="#FFFFFF" points="790.431,-567 535,-157 578,-157 833.431,-567 						"/>
					</g>
					<g clip-path="url(#SVGID_22_)">
						<polygon fill="#FFFFFF" points="334,-157 271,-157 661,-783 724,-783 						"/>
						<polygon opacity="0.6" fill="#FFFFFF" points="620.431,-567 365,-157 408,-157 663.431,-567 						"/>
					</g>
					<g clip-path="url(#SVGID_22_)">
						<polygon fill="#FFFFFF" points="164,-157 101,-157 491,-783 554,-783 						"/>
						<polygon opacity="0.6" fill="#FFFFFF" points="450.431,-567 195,-157 238,-157 493.431,-567 						"/>
					</g>
					<g clip-path="url(#SVGID_22_)">
						<polygon fill="#FFFFFF" points="-6,-157 -69,-157 321,-783 384,-783 						"/>
						<polygon opacity="0.6" fill="#FFFFFF" points="280.431,-567 25,-157 68,-157 323.431,-567 						"/>
					</g>
				</g>
			</g>
			<g clip-path="url(#SVGID_20_)">
				<g>
					<defs>
						<rect id="SVGID_23_" x="-400.5" y="-469.577" width="680" height="820"/>
					</defs>
					<clipPath id="SVGID_24_">
						<use xlink:href="#SVGID_23_"  overflow="visible"/>
					</clipPath>
					<g clip-path="url(#SVGID_24_)">
						<polygon fill="#FFFFFF" points="334,663 271,663 661,37 724,37 						"/>
					</g>
					<g clip-path="url(#SVGID_24_)">
						<polygon fill="#FFFFFF" points="164,663 101,663 491,37 554,37 						"/>
						<polygon opacity="0.6" fill="#FFFFFF" points="450.431,253 195,663 238,663 493.431,253 						"/>
					</g>
					<g clip-path="url(#SVGID_24_)">
						<polygon fill="#FFFFFF" points="-6,663 -69,663 321,37 384,37 						"/>
						<polygon opacity="0.6" fill="#FFFFFF" points="280.431,253 25,663 68,663 323.431,253 						"/>
					</g>
					<g clip-path="url(#SVGID_24_)">
						<polygon fill="#FFFFFF" points="-176,663 -239,663 151,37 214,37 						"/>
						<polygon opacity="0.6" fill="#FFFFFF" points="110.431,253 -145,663 -102,663 153.431,253 						"/>
					</g>
					<g clip-path="url(#SVGID_24_)">
						<polygon fill="#FFFFFF" points="-346,663 -409,663 -19,37 44,37 						"/>
						<polygon opacity="0.6" fill="#FFFFFF" points="-59.569,253 -315,663 -272,663 -16.569,253 						"/>
					</g>
					<g clip-path="url(#SVGID_24_)">
						<polygon fill="#FFFFFF" points="-516,663 -579,663 -189,37 -126,37 						"/>
						<polygon opacity="0.6" fill="#FFFFFF" points="-229.569,253 -485,663 -442,663 -186.569,253 						"/>
					</g>
					<g clip-path="url(#SVGID_24_)">
						<polygon fill="#FFFFFF" points="-686,663 -749,663 -359,37 -296,37 						"/>
						<polygon opacity="0.6" fill="#FFFFFF" points="-399.569,253 -655,663 -612,663 -356.569,253 						"/>
					</g>
					<g clip-path="url(#SVGID_24_)">
						<polygon fill="#FFFFFF" points="249,253 186,253 576,-373 639,-373 						"/>
					</g>
					<g clip-path="url(#SVGID_24_)">
						<polygon fill="#FFFFFF" points="79,253 16,253 406,-373 469,-373 						"/>
						<polygon opacity="0.6" fill="#FFFFFF" points="365.431,-157 110,253 153,253 408.431,-157 						"/>
					</g>
					<g clip-path="url(#SVGID_24_)">
						<polygon fill="#FFFFFF" points="-91,253 -154,253 236,-373 299,-373 						"/>
						<polygon opacity="0.6" fill="#FFFFFF" points="195.431,-157 -60,253 -17,253 238.431,-157 						"/>
					</g>
					<g clip-path="url(#SVGID_24_)">
						<polygon fill="#FFFFFF" points="-261,253 -324,253 66,-373 129,-373 						"/>
						<polygon opacity="0.6" fill="#FFFFFF" points="25.431,-157 -230,253 -187,253 68.431,-157 						"/>
					</g>
					<g clip-path="url(#SVGID_24_)">
						<polygon fill="#FFFFFF" points="-431,253 -494,253 -104,-373 -41,-373 						"/>
						<polygon opacity="0.6" fill="#FFFFFF" points="-144.569,-157 -400,253 -357,253 -101.569,-157 						"/>
					</g>
					<g clip-path="url(#SVGID_24_)">
						<polygon fill="#FFFFFF" points="-601,253 -664,253 -274,-373 -211,-373 						"/>
						<polygon opacity="0.6" fill="#FFFFFF" points="-314.569,-157 -570,253 -527,253 -271.569,-157 						"/>
					</g>
					<g clip-path="url(#SVGID_24_)">
						<polygon fill="#FFFFFF" points="-771,253 -834,253 -444,-373 -381,-373 						"/>
					</g>
					<g clip-path="url(#SVGID_24_)">
						<polygon fill="#FFFFFF" points="334,-157 271,-157 661,-783 724,-783 						"/>
					</g>
					<g clip-path="url(#SVGID_24_)">
						<polygon fill="#FFFFFF" points="164,-157 101,-157 491,-783 554,-783 						"/>
						<polygon opacity="0.6" fill="#FFFFFF" points="450.431,-567 195,-157 238,-157 493.431,-567 						"/>
					</g>
					<g clip-path="url(#SVGID_24_)">
						<polygon fill="#FFFFFF" points="-6,-157 -69,-157 321,-783 384,-783 						"/>
						<polygon opacity="0.6" fill="#FFFFFF" points="280.431,-567 25,-157 68,-157 323.431,-567 						"/>
					</g>
					<g clip-path="url(#SVGID_24_)">
						<polygon fill="#FFFFFF" points="-176,-157 -239,-157 151,-783 214,-783 						"/>
						<polygon opacity="0.6" fill="#FFFFFF" points="110.431,-567 -145,-157 -102,-157 153.431,-567 						"/>
					</g>
					<g clip-path="url(#SVGID_24_)">
						<polygon fill="#FFFFFF" points="-346,-157 -409,-157 -19,-783 44,-783 						"/>
						<polygon opacity="0.6" fill="#FFFFFF" points="-59.569,-567 -315,-157 -272,-157 -16.569,-567 						"/>
					</g>
					<g clip-path="url(#SVGID_24_)">
						<polygon fill="#FFFFFF" points="-516,-157 -579,-157 -189,-783 -126,-783 						"/>
						<polygon opacity="0.6" fill="#FFFFFF" points="-229.569,-567 -485,-157 -442,-157 -186.569,-567 						"/>
					</g>
					<g clip-path="url(#SVGID_24_)">
						<polygon fill="#FFFFFF" points="-686,-157 -749,-157 -359,-783 -296,-783 						"/>
						<polygon opacity="0.6" fill="#FFFFFF" points="-399.569,-567 -655,-157 -612,-157 -356.569,-567 						"/>
					</g>
				</g>
			</g>
		</g>
	</g>
</g>
</svg>
